<svg width="150" height="150" xmlns="http://www.w3.org/2000/svg" viewBox="0 0 1904.47 1590.72">
  <defs>
    <style>.cls-1{isolation:isolate;}.cls-2{fill:#4bbd99;}.cls-3{fill:#398378;}</style>
  </defs>
  <g id="Rectangle_3_copy_3" data-name="Rectangle 3 copy 3" class="cls-1">
    <g id="Rectangle_3_copy_3-2" data-name="Rectangle 3 copy 3">
      <path class="cls-2" d="M1029.79,72a622.66,622.66,0,0,0-262.92,57.83l197.81,197.8a377.56,377.56,0,0,1,65.11-5.64c207.11,0,375,167.89,375,375s-167.89,375-375,375a379.77,379.77,0,0,1-46.39-2.84L781.73,1270.75a622.91,622.91,0,0,0,248.06,51.17c345.18,0,625-279.82,625-625S1375,72,1029.79,72Z" transform="translate(-0.54 -0.23)"/>
    </g>
  </g>
  <g id="Rectangle_3_copy_2" data-name="Rectangle 3 copy 2" class="cls-1">
    <g id="Rectangle_3_copy_2-2" data-name="Rectangle 3 copy 2">
      <rect class="cls-3" x="474.96" y="759.11" width="750" height="250" transform="translate(-376.75 859.73) rotate(-45)"/>
    </g>
  </g>
  <g id="Rectangle_3_copy_2-3" data-name="Rectangle 3 copy 2" class="cls-1">
    <g id="Rectangle_3_copy_2-4" data-name="Rectangle 3 copy 2">
      <rect class="cls-2" x="636.57" y="-57.83" width="250" height="1000" transform="translate(-90.14 667.79) rotate(-45)"/>
    </g>
  </g>
  <g id="Rectangle_3_copy_2-5" data-name="Rectangle 3 copy 2" class="cls-1">
    <g id="Rectangle_3_copy_2-6" data-name="Rectangle 3 copy 2">
      <rect class="cls-3" x="229.41" y="862.56" width="249.97" height="749.92" transform="translate(-771.64 612.55) rotate(-44.99)"/>
    </g>
  </g>
  <g id="Rectangle_3_copy_2-7" data-name="Rectangle 3 copy 2" class="cls-1">
    <g id="Rectangle_3_copy_2-8" data-name="Rectangle 3 copy 2">
      <rect class="cls-2" x="-20.83" y="759.42" width="750" height="249.97" transform="translate(-522.08 509.03) rotate(-44.99)"/>
    </g>
  </g>
  <g id="Ellipse_2_copy_2" data-name="Ellipse 2 copy 2" class="cls-1">
    <g id="Ellipse_2_copy_2-2" data-name="Ellipse 2 copy 2">
      <path class="cls-3" d="M1855,72H1705a50,50,0,0,0-50,50V358.05a625.42,625.42,0,0,1,0,677.8V1271a50,50,0,0,0,50,50h150a50,50,0,0,0,50-50V122A50,50,0,0,0,1855,72Z" transform="translate(-0.54 -0.23)"/>
    </g>
  </g>
</svg>