<svg id="Layer_1" data-name="Layer 1" xmlns="http://www.w3.org/2000/svg" xmlns:xlink="http://www.w3.org/1999/xlink" viewBox="0 0 1400 1400"><defs><style>.cls-1{fill:url(#linear-gradient);}.cls-2{fill:#fff;}.cls-3{fill:#e2e2e2;}</style><linearGradient id="linear-gradient" x1="16.48" y1="126.45" x2="1383.52" y2="1273.55" gradientUnits="userSpaceOnUse"><stop offset="0" stop-color="#398378"/><stop offset="1" stop-color="#4bbd99"/></linearGradient></defs><rect class="cls-1" width="1400" height="1400" rx="229.7"/><g id="Rectangle_3_copy_3" data-name="Rectangle 3 copy 3"><g id="Rectangle_3_copy_3-2" data-name="Rectangle 3 copy 3-2"><path class="cls-2" d="M1002.91,319a409.75,409.75,0,0,0-173.08,38.07L960.05,487.28a249.24,249.24,0,0,1,42.86-3.71c136.34,0,246.87,110.52,246.87,246.87s-110.53,246.87-246.87,246.87a251.38,251.38,0,0,1-30.54-1.87L839.61,1108.15a410,410,0,0,0,163.3,33.69c227.24,0,411.45-184.21,411.45-411.45S1230.17,319,1002.91,319Z" transform="translate(-270.53 -97.21)"/></g></g><g id="Rectangle_3_copy_2" data-name="Rectangle 3 copy 2"><g id="Rectangle_3_copy_2-2" data-name="Rectangle 3 copy 2-2"><rect class="cls-3" x="637.66" y="771.33" width="493.74" height="164.58" transform="translate(-615.06 778.26) rotate(-45)"/></g></g><g id="Rectangle_3_copy_2-3" data-name="Rectangle 3 copy 2-3"><g id="Rectangle_3_copy_2-4" data-name="Rectangle 3 copy 2-4"><rect class="cls-2" x="744.05" y="233.53" width="164.58" height="658.32" transform="translate(-426.38 651.9) rotate(-45)"/></g></g><g id="Rectangle_3_copy_2-5" data-name="Rectangle 3 copy 2-5"><g id="Rectangle_3_copy_2-6" data-name="Rectangle 3 copy 2-6"><rect class="cls-3" x="476.04" y="839.38" width="164.56" height="493.68" transform="translate(-875.02 615.52) rotate(-44.99)"/></g></g><g id="Rectangle_3_copy_2-7" data-name="Rectangle 3 copy 2-7"><g id="Rectangle_3_copy_2-8" data-name="Rectangle 3 copy 2-8"><rect class="cls-2" x="311.29" y="771.5" width="493.74" height="164.56" transform="translate(-710.73 547.36) rotate(-44.99)"/></g></g><g id="Ellipse_2_copy_2" data-name="Ellipse 2 copy 2"><g id="Ellipse_2_copy_2-2" data-name="Ellipse 2 copy 2-2"><path class="cls-3" d="M1546.16,319h-98.75a32.9,32.9,0,0,0-32.91,32.91v155.4a411.74,411.74,0,0,1,0,446.21v154.8a32.91,32.91,0,0,0,32.91,32.92h98.75a32.92,32.92,0,0,0,32.92-32.92V351.91A32.91,32.91,0,0,0,1546.16,319Z" transform="translate(-270.53 -97.21)"/></g></g></svg>