<svg width="153" height="158" viewBox="0 0 153 158" fill="none" xmlns="http://www.w3.org/2000/svg">
<g opacity="0.3" clip-path="url(#clip0_240_1827)">
<path fill-rule="evenodd" clip-rule="evenodd" d="M3 104.305C-22.2368 104.305 -42.6954 124.763 -42.6954 150C-42.6954 175.237 -22.2368 195.695 3 195.695C28.2368 195.695 48.6954 175.237 48.6954 150C48.6954 124.763 28.2368 104.305 3 104.305ZM-40.7086 150C-40.7086 125.86 -21.1396 106.291 3 106.291C27.1396 106.291 46.7086 125.86 46.7086 150C46.7086 174.14 27.1396 193.709 3 193.709C-21.1396 193.709 -40.7086 174.14 -40.7086 150Z" fill="#398378"/>
<path fill-rule="evenodd" clip-rule="evenodd" d="M3 96.8543C-26.3516 96.8543 -50.1457 120.648 -50.1457 150C-50.1457 179.352 -26.3516 203.146 3 203.146C32.3516 203.146 56.1457 179.352 56.1457 150C56.1457 120.648 32.3516 96.8543 3 96.8543ZM-48.1589 150C-48.1589 121.746 -25.2543 98.8411 3 98.8411C31.2543 98.8411 54.159 121.746 54.159 150C54.159 178.254 31.2543 201.159 3 201.159C-25.2543 201.159 -48.1589 178.254 -48.1589 150Z" fill="#398378"/>
<path fill-rule="evenodd" clip-rule="evenodd" d="M-57.596 150C-57.596 116.534 -30.4663 89.404 3 89.404C36.4663 89.404 63.596 116.534 63.596 150C63.596 183.466 36.4663 210.596 3 210.596C-30.4663 210.596 -57.596 183.466 -57.596 150ZM3 91.3907C-29.369 91.3907 -55.6093 117.631 -55.6093 150C-55.6093 182.369 -29.369 208.609 3 208.609C35.369 208.609 61.6093 182.369 61.6093 150C61.6093 117.631 35.369 91.3907 3 91.3907Z" fill="#398378"/>
<path fill-rule="evenodd" clip-rule="evenodd" d="M-65.0464 150C-65.0464 112.419 -34.581 81.9536 3 81.9536C40.581 81.9536 71.0464 112.419 71.0464 150C71.0464 187.581 40.581 218.046 3 218.046C-34.581 218.046 -65.0464 187.581 -65.0464 150ZM3 83.9404C-33.4837 83.9404 -63.0596 113.516 -63.0596 150C-63.0596 186.484 -33.4837 216.06 3 216.06C39.4837 216.06 69.0596 186.484 69.0596 150C69.0596 113.516 39.4837 83.9404 3 83.9404Z" fill="#398378"/>
<path fill-rule="evenodd" clip-rule="evenodd" d="M-72.4967 150C-72.4967 108.304 -38.6957 74.5033 3 74.5033C44.6957 74.5033 78.4967 108.304 78.4967 150C78.4967 191.696 44.6957 225.497 3 225.497C-38.6957 225.497 -72.4967 191.696 -72.4967 150ZM3 76.4901C-37.5984 76.4901 -70.5099 109.402 -70.5099 150C-70.5099 190.598 -37.5984 223.51 3 223.51C43.5984 223.51 76.5099 190.598 76.5099 150C76.5099 109.402 43.5984 76.4901 3 76.4901Z" fill="#398378"/>
<path fill-rule="evenodd" clip-rule="evenodd" d="M3 67.053C-42.8104 67.053 -79.947 104.19 -79.947 150C-79.947 195.81 -42.8104 232.947 3 232.947C48.8104 232.947 85.947 195.81 85.947 150C85.947 104.19 48.8104 67.053 3 67.053ZM-77.9603 150C-77.9603 105.287 -41.7131 69.0397 3 69.0397C47.7131 69.0397 83.9603 105.287 83.9603 150C83.9603 194.713 47.7131 230.96 3 230.96C-41.7131 230.96 -77.9603 194.713 -77.9603 150Z" fill="#398378"/>
<path fill-rule="evenodd" clip-rule="evenodd" d="M-87.3974 150C-87.3974 100.075 -46.9251 59.6026 3 59.6026C52.9251 59.6026 93.3974 100.075 93.3974 150C93.3974 199.925 52.9251 240.397 3 240.397C-46.9251 240.397 -87.3974 199.925 -87.3974 150ZM3 61.5894C-45.8278 61.5894 -85.4106 101.172 -85.4106 150C-85.4106 198.828 -45.8278 238.411 3 238.411C51.8278 238.411 91.4106 198.828 91.4106 150C91.4106 101.172 51.8278 61.5894 3 61.5894Z" fill="#398378"/>
<path fill-rule="evenodd" clip-rule="evenodd" d="M3 52.1523C-51.0398 52.1523 -94.8477 95.9602 -94.8477 150C-94.8477 204.04 -51.0398 247.848 3 247.848C57.0398 247.848 100.848 204.04 100.848 150C100.848 95.9602 57.0398 52.1523 3 52.1523ZM-92.8609 150C-92.8609 97.0575 -49.9425 54.1391 3 54.1391C55.9425 54.1391 98.8609 97.0575 98.8609 150C98.8609 202.943 55.9425 245.861 3 245.861C-49.9425 245.861 -92.8609 202.943 -92.8609 150Z" fill="#398378"/>
<path fill-rule="evenodd" clip-rule="evenodd" d="M-102.298 150C-102.298 91.8455 -55.1545 44.702 3 44.702C61.1545 44.702 108.298 91.8455 108.298 150C108.298 208.154 61.1545 255.298 3 255.298C-55.1545 255.298 -102.298 208.154 -102.298 150ZM3 46.6887C-54.0572 46.6887 -100.311 92.9428 -100.311 150C-100.311 207.057 -54.0572 253.311 3 253.311C60.0572 253.311 106.311 207.057 106.311 150C106.311 92.9428 60.0572 46.6887 3 46.6887Z" fill="#398378"/>
<path fill-rule="evenodd" clip-rule="evenodd" d="M3 37.2517C-59.2692 37.2517 -109.748 87.7308 -109.748 150C-109.748 212.269 -59.2692 262.748 3 262.748C65.2692 262.748 115.748 212.269 115.748 150C115.748 87.7308 65.2692 37.2517 3 37.2517ZM-107.762 150C-107.762 88.8281 -58.1719 39.2384 3 39.2384C64.1719 39.2384 113.762 88.8281 113.762 150C113.762 211.172 64.1719 260.762 3 260.762C-58.1719 260.762 -107.762 211.172 -107.762 150Z" fill="#398378"/>
<path fill-rule="evenodd" clip-rule="evenodd" d="M-117.199 150C-117.199 83.6161 -63.3839 29.8013 3 29.8013C69.3839 29.8013 123.199 83.6161 123.199 150C123.199 216.384 69.3839 270.199 3 270.199C-63.3839 270.199 -117.199 216.384 -117.199 150ZM3 31.7881C-62.2866 31.7881 -115.212 84.7134 -115.212 150C-115.212 215.287 -62.2866 268.212 3 268.212C68.2866 268.212 121.212 215.287 121.212 150C121.212 84.7134 68.2866 31.7881 3 31.7881Z" fill="#398378"/>
<path fill-rule="evenodd" clip-rule="evenodd" d="M3 22.351C-67.4986 22.351 -124.649 79.5014 -124.649 150C-124.649 220.499 -67.4986 277.649 3 277.649C73.4986 277.649 130.649 220.499 130.649 150C130.649 79.5014 73.4986 22.351 3 22.351ZM-122.662 150C-122.662 80.5987 -66.4013 24.3377 3 24.3377C72.4013 24.3377 128.662 80.5987 128.662 150C128.662 219.401 72.4013 275.662 3 275.662C-66.4013 275.662 -122.662 219.401 -122.662 150Z" fill="#398378"/>
<path fill-rule="evenodd" clip-rule="evenodd" d="M-132.099 150C-132.099 75.3867 -71.6133 14.9007 3 14.9007C77.6133 14.9007 138.099 75.3867 138.099 150C138.099 224.613 77.6133 285.099 3 285.099C-71.6133 285.099 -132.099 224.613 -132.099 150ZM3 16.8874C-70.516 16.8874 -130.113 76.484 -130.113 150C-130.113 223.516 -70.516 283.113 3 283.113C76.5161 283.113 136.113 223.516 136.113 150C136.113 76.484 76.5161 16.8874 3 16.8874Z" fill="#398378"/>
<path fill-rule="evenodd" clip-rule="evenodd" d="M3 7.45033C-75.728 7.45033 -139.55 71.272 -139.55 150C-139.55 228.728 -75.728 292.55 3 292.55C81.728 292.55 145.55 228.728 145.55 150C145.55 71.272 81.728 7.45033 3 7.45033ZM-137.563 150C-137.563 72.3692 -74.6308 9.43709 3 9.43709C80.6308 9.43709 143.563 72.3692 143.563 150C143.563 227.631 80.6308 290.563 3 290.563C-74.6308 290.563 -137.563 227.631 -137.563 150Z" fill="#398378"/>
<path fill-rule="evenodd" clip-rule="evenodd" d="M-147 150C-147 67.1573 -79.8427 0 3 0C85.8427 0 153 67.1573 153 150C153 232.843 85.8427 300 3 300C-79.8427 300 -147 232.843 -147 150ZM3 1.98676C-78.7455 1.98676 -145.013 68.2545 -145.013 150C-145.013 231.745 -78.7455 298.013 3 298.013C84.7455 298.013 151.013 231.745 151.013 150C151.013 68.2545 84.7455 1.98676 3 1.98676Z" fill="#398378"/>
</g>
<defs>
<clipPath id="clip0_240_1827">
<rect width="153" height="158" fill="white"/>
</clipPath>
</defs>
</svg>
